<svg version="1.0" id="Layer_1" xmlns="http://www.w3.org/2000/svg" x="0" y="0" viewBox="0 0 2104 552" xml:space="preserve"><style>.st1{fill:#fff}</style><path fill="#6930ca" d="M-9999 -9999 h99999v99999H0z"/><path class="st1" d="M802.2 358.9c0 26.4-19.9 48.4-46.2 51.4-7.5.9-15.4 1.3-23.7 1.3-36.1 0-65-11.4-86.8-34.2-21.7-22.8-32.6-52.7-32.6-89.7 0-39.8 12.2-71.9 36.7-96.5 24.5-24.5 55.4-36.8 92.7-36.8 4.1 0 8 .1 11.9.3 27 1.4 48 23.9 48 50.9-16.8-9.9-35.3-14.9-55.5-14.9-27 0-48.8 8.6-65.5 25.9-16.7 17.2-25.1 40.3-25.1 69.1 0 27.4 7.8 49.2 23.4 65.5 15.6 16.3 36.2 24.4 61.6 24.4 23.5-.1 43.9-5.6 61.1-16.7zM981.3 407.4h-39v-27.8h-.7c-12.3 21.3-30.3 31.9-54 31.9-17.5 0-31.1-4.7-41-14.2-9.9-9.5-14.8-22-14.8-37.6 0-33.5 19.3-53.1 58-58.6l52.7-7.5c0-25.3-12-38-36.1-38-21.2 0-40.3 7.3-57.3 21.9 0-24.4 17.2-46.1 41.2-50 7.6-1.2 15.4-1.9 23.6-1.9 44.9 0 67.3 22.1 67.3 66.3v115.5zm-38.9-87.2l-37.3 5.2c-11.6 1.5-20.3 4.3-26.1 8.4-5.8 4.1-8.8 11.3-8.8 21.6 0 7.5 2.7 13.7 8.1 18.5 5.4 4.8 12.6 7.2 21.6 7.2 12.3 0 22.4-4.3 30.5-12.9 8-8.6 12.1-19.5 12.1-32.5v-15.5zM1019.3 364.6c15 11.5 31.6 17.2 49.8 17.2 24.3 0 36.4-7.2 36.4-21.5 0-4-1-7.5-3.1-10.3-2.1-2.8-4.9-5.3-8.4-7.5s-7.7-4.2-12.5-5.9c-4.8-1.7-10.2-3.7-16.1-5.9-7.3-2.9-13.9-6-19.7-9.2-5.8-3.2-10.7-6.9-14.6-11-3.9-4.1-6.8-8.8-8.8-14-2-5.2-2.9-11.3-2.9-18.2 0-8.6 2-16.1 6.1-22.6 4-6.5 9.5-12 16.3-16.5 6.8-4.5 14.6-7.8 23.3-10.1 8.7-2.3 17.6-3.4 26.9-3.4h2.6c23.1.4 41.5 19.5 41.5 42.7-12.5-8.6-26.8-12.8-43-12.8-5.1 0-9.7.5-13.8 1.6-4.1 1-7.6 2.5-10.5 4.3-2.9 1.9-5.1 4.1-6.8 6.7-1.6 2.6-2.4 5.5-2.4 8.6 0 3.8.8 7.1 2.4 9.7 1.6 2.7 4 5 7.2 7s7 3.9 11.5 5.6c4.5 1.7 9.6 3.5 15.4 5.5 7.6 3.1 14.5 6.3 20.6 9.5 6.1 3.2 11.2 6.9 15.5 11 4.3 4.1 7.6 8.9 9.9 14.2 2.3 5.4 3.5 11.8 3.5 19.2 0 9-2.1 16.9-6.2 23.6-4.2 6.7-9.7 12.3-16.7 16.7-6.9 4.4-15 7.7-24 9.8-9.1 2.1-18.7 3.2-28.7 3.2-1.6 0-3.2 0-4.7-.1-25.7-.9-46-21.7-46-47.1zM1341.5 407.4c-22.2 0-40.3-18-40.3-40.3v-56.9c0-35.2-11.7-52.8-35.2-52.8-11.8 0-21.7 5.1-29.8 15.3-8.1 10.2-12.1 23.2-12.1 39v95.6h-40.4V184.8c0-22.3 18.1-40.4 40.4-40.4v114.9h.7c13.4-22.4 32.6-33.7 57.6-33.7 39.4 0 59.2 24.1 59.2 72.4v109.4zM1490.9 177.2c-5.4-3.1-11.6-4.7-18.6-4.7-19.6 0-29.3 11-29.3 33.1v24.1h41.3c0 17.4-14.1 31.6-31.6 31.6h-9.5v146.1h-40.3V261.3h-30.4v-1.2c0-16.8 13.6-30.4 30.4-30.4V201c0-18.7 6.1-33.5 18.4-44.3 12.3-10.8 27.6-16.2 46-16.2 9.9 0 17.8 1.1 23.6 3.3v33.4zM1616 268.1c-4.9-3.8-11.9-5.7-21-5.7-11.9 0-21.9 5.4-29.8 16.1-8 10.8-12 25.4-12 43.9v85h-40.3V270c0-22.2 18-40.3 40.3-40.3v36.6h.7c3.9-12.5 10-22.2 18.1-29.2 8.2-7 17.3-10.5 27.3-10.5 7.3 0 12.8 1.1 16.7 3.3v38.2zM1791.8 329.5h-121.1c.5 16.4 5.5 29.1 15.2 38 9.7 8.9 22.9 13.4 39.8 13.4 19 0 36.4-5.7 52.2-17v32.4c-16.2 10.2-37.6 15.3-64.2 15.3-26.1 0-46.6-8.1-61.5-24.2-14.9-16.1-22.3-38.8-22.3-68.1 0-27.6 8.2-50.2 24.6-67.6 16.4-17.4 36.7-26.1 61-26.1s43.1 7.8 56.4 23.4c13.3 15.6 20 37.3 20 65.1v15.4zm-38.9-28.4c-.1-14.5-3.5-25.7-10.2-33.7-6.7-8-16-12.1-27.8-12.1-11.6 0-21.4 4.2-29.4 12.7-8 8.4-13 19.5-14.8 33.1h82.2zM1980.5 329.5h-121.1c.5 16.4 5.5 29.1 15.2 38 9.7 8.9 22.9 13.4 39.8 13.4 19 0 36.4-5.7 52.2-17v32.4c-16.2 10.2-37.6 15.3-64.2 15.3-26.1 0-46.6-8.1-61.5-24.2-14.9-16.1-22.3-38.8-22.3-68.1 0-27.6 8.2-50.2 24.6-67.6 16.4-17.4 36.7-26.1 61-26.1 24.3 0 43.1 7.8 56.4 23.4 13.3 15.6 20 37.3 20 65.1v15.4zm-38.8-28.4c-.1-14.5-3.5-25.7-10.2-33.7-6.7-8-16-12.1-27.8-12.1-11.6 0-21.4 4.2-29.4 12.7-8 8.4-13 19.5-14.8 33.1h82.2z"/><g><path d="M222.7 200.4c-16.2 2.1-15.5 33.6-17.7 59.8l-13.1 134.2c-3.4 34.4-34 59.6-68.4 56.2l20.1-206.4c2.8-28.2 27.9-48.9 56.1-46.1l23 2.3z" fill="#f5b900"/><linearGradient id="SVGID_1_" gradientUnits="userSpaceOnUse" x1="215" y1="206.08" x2="258.096" y2="221.882"><stop offset="0" stop-color="#f38321"/><stop offset="1" stop-color="#f5b900"/></linearGradient><path d="M406.1 218.3c-3.3 33.7-33.3 58.3-67 55l-134.2-13.1c2.3-26.3 1.5-57.8 17.7-59.8l183.5 17.9z" fill="url(#SVGID_1_)"/><linearGradient id="SVGID_2_" gradientUnits="userSpaceOnUse" x1="354.132" y1="124.349" x2="500.657" y2="163.135"><stop offset="0" stop-color="#00a99d"/><stop offset="1" stop-color="#48e5c2"/></linearGradient><path d="M531.6 122.5c-3.4 34.6-34.2 59.9-68.8 56.5L325 165.5c2.3-27 1.6-59.3 18.2-61.5l188.4 18.5z" fill="url(#SVGID_2_)"/><path d="M343.5 103.5c-16.9 2.7-16.2 35.1-18.5 62l-13.4 137.8c-3.4 35.3-34.9 61.2-70.2 57.7l20.7-212c2.8-29 28.6-50.2 57.9-48l23.5 2.5z" fill="#48e5c2"/></g></svg>
