<?xml version="1.0" encoding="UTF-8"?>
<!DOCTYPE svg PUBLIC "-//W3C//DTD SVG 1.1//EN" "http://www.w3.org/Graphics/SVG/1.1/DTD/svg11.dtd">
<!-- Creator: CorelDRAW X8 -->
<svg xmlns="http://www.w3.org/2000/svg" xml:space="preserve" width="1388px" height="274px" version="1.1" style="shape-rendering:geometricPrecision; text-rendering:geometricPrecision; image-rendering:optimizeQuality; fill-rule:evenodd; clip-rule:evenodd"
viewBox="0 0 1183 233"
 xmlns:xlink="http://www.w3.org/1999/xlink">
 <defs>
  <style type="text/css">
   <![CDATA[
    .fil0 {fill:#FEFEFE}
    .fil3 {fill:#043178}
    .fil2 {fill:#2768CF}
    .fil1 {fill:#F6F6F7}
    .fil4 {fill:#F8F8F8}
   ]]>
  </style>
 </defs>
 <g id="Layer_x0020_1">
  <metadata id="CorelCorpID_0Corel-Layer"/>
  <path class="fil0" d="M288 77c101,0 94,-7 94,68 0,29 6,58 -16,64 -17,5 -59,3 -79,3l1 -135zm-15 150c16,3 85,2 100,-3 32,-12 26,-46 26,-81 0,-34 5,-69 -27,-79 -16,-4 -84,-6 -99,-2 -4,12 -4,153 0,165z"/>
  <path class="fil0" d="M1104 124c11,-2 32,-2 43,1 15,3 19,10 20,27 0,11 1,37 -2,46 -5,11 -16,13 -32,14 -32,1 -58,-1 -65,-30 -6,-29 3,-54 36,-58zm-37 91c12,5 16,10 35,12 13,2 32,1 45,-1 35,-5 36,-25 36,-60 0,-36 -3,-53 -38,-58 -12,-2 -32,-2 -44,-1 -8,1 -14,3 -20,5 -6,3 -10,6 -14,8 0,-16 2,-48 -2,-60 -20,-5 -15,17 -15,34l0 102c0,17 -5,37 15,33l2 -14z"/>
  <path class="fil0" d="M440 148c1,-28 25,-25 51,-25 25,0 47,-2 49,25l-100 0zm116 17c0,-30 -3,-49 -30,-55 -18,-5 -59,-5 -77,1 -25,8 -26,29 -26,59 0,29 3,48 29,55 15,4 64,5 81,3 13,-1 20,-8 22,-20 5,-25 -12,-26 -15,-15 -5,18 2,19 -23,19 -66,-1 -80,6 -77,-47l116 0z"/>
  <path class="fil0" d="M862 147c4,-7 4,-16 0,-26 -8,-22 -47,-15 -80,-14 -67,0 -46,56 -27,64 32,14 104,-17 93,30 -4,17 -36,11 -52,11 -47,0 -37,2 -43,-19 -2,-9 -15,-10 -16,5 0,10 3,19 8,24 12,10 40,6 56,6 19,0 42,3 55,-9 11,-10 12,-34 4,-48 -19,-29 -93,0 -104,-21 -4,-8 -3,-20 3,-24 8,-6 79,-3 87,-1 4,13 -2,24 16,22z"/>
  <path class="fil1" d="M74 145l41 0 14 86 -41 1 -14 -87zm-16 71l-3 16 -41 0 14 -87 41 0 -11 71zm57 -74l-41 0 14 -85 41 0 -14 85zm-102 -85l42 0 13 84 -40 1 -15 -85zm45 159l6 -31 8 48 58 0c-2,-26 -13,-64 -13,-88 -1,-23 11,-64 13,-90l-58 0 -7 47 -9 -47 -56 0c1,27 14,64 14,88 0,25 -13,64 -14,90l56 0 2 -17z"/>
  <path class="fil1" d="M160 145l41 1 -14 86 -42 -1 15 -86zm45 0l42 0 14 87 -41 0 -15 -87zm-4 -4l-41 1 -15 -85 42 0 14 84zm19 -84l41 0 -14 85 -42 -1 15 -84zm43 176c-3,-26 -14,-67 -14,-90 0,-23 12,-62 14,-88l-58 0 -9 48 -7 -48 -57 0c1,26 15,67 14,90 -1,26 -12,61 -14,88l57 0 8 -47 8 47 58 0z"/>
  <path class="fil0" d="M595 228c14,-43 -27,-106 60,-105 49,0 43,11 42,82 0,15 -3,28 15,23 3,-11 2,-46 2,-62 0,-51 -13,-60 -68,-59 -26,0 -31,4 -49,13 0,-22 -16,-19 -16,-3l0 86c0,15 -4,30 14,25z"/>
  <path class="fil0" d="M891 106c-4,12 -2,47 -2,62 0,49 9,61 68,60 26,0 30,-5 48,-13 1,21 16,19 17,3l0 -87c0,-15 3,-29 -14,-25 -7,18 1,56 -5,78 -7,24 -27,28 -55,28 -49,-1 -43,-9 -43,-83 0,-15 3,-27 -14,-23z"/>
  <polygon class="fil2" points="220,232 261,232 247,145 205,145 "/>
  <polygon class="fil2" points="145,231 187,232 201,146 160,145 "/>
  <polygon class="fil3" points="58,216 69,145 28,145 14,232 55,232 "/>
  <polygon class="fil3" points="129,231 115,145 74,145 88,232 "/>
  <polygon class="fil2" points="160,142 201,141 187,57 145,57 "/>
  <polygon class="fil3" points="28,142 68,141 55,57 13,57 "/>
  <polygon class="fil2" points="205,141 247,142 261,57 220,57 "/>
  <polygon class="fil3" points="129,57 88,57 74,142 115,142 "/>
  <path class="fil3" d="M84 44c3,0 2,1 2,-2l0 -39c-9,-2 -26,-2 -36,0 -2,10 -2,31 1,40 9,3 22,2 33,1z"/>
  <path class="fil2" d="M213 45c4,-10 4,-32 1,-42 -5,-1 -10,-1 -16,-1l-12 1c-12,2 -5,39 -4,40 7,4 22,1 31,2z"/>
  <path class="fil4" d="M84 44c-11,1 -24,2 -33,-1 -3,-9 -3,-30 -1,-40 10,-2 27,-2 36,0l0 39c3,-6 7,-36 -3,-40 -6,-3 -37,-2 -43,0 -2,7 -3,33 0,41 7,6 35,5 44,1z"/>
  <path class="fil4" d="M213 45c-9,-1 -24,2 -31,-2 -1,-1 -8,-38 4,-40l12 -1c6,0 11,0 16,1 3,10 3,32 -1,42zm0 0c8,-7 3,-41 2,-43 -8,-3 -35,-3 -44,0 -2,7 -3,34 0,41 5,6 39,4 42,2z"/>
 </g>
</svg>
