<svg width="20" height="20" viewBox="0 0 20 20" fill="none" xmlns="http://www.w3.org/2000/svg">
<path d="M17.1401 10.5763C17.1801 10.2825 17.2001 9.97898 17.2001 9.65586C17.2001 9.34253 17.1801 9.02919 17.1301 8.73544L19.1601 7.18836C19.3401 7.05127 19.3901 6.7869 19.2801 6.59107L17.3601 3.34023C17.2401 3.12482 16.9901 3.05628 16.7701 3.12482L14.3801 4.06482C13.8801 3.69273 13.3501 3.3794 12.7601 3.1444L12.4001 0.657318C12.3601 0.422318 12.1601 0.255859 11.9201 0.255859H8.08011C7.84011 0.255859 7.65011 0.422318 7.61011 0.657318L7.25011 3.1444C6.66011 3.3794 6.12011 3.70253 5.63011 4.06482L3.24011 3.12482C3.02011 3.04648 2.77011 3.12482 2.65011 3.34023L0.74011 6.59107C0.62011 6.79669 0.66011 7.05127 0.86011 7.18836L2.89011 8.73544C2.84011 9.02919 2.80011 9.35232 2.80011 9.65586C2.80011 9.9594 2.82011 10.2825 2.87011 10.5763L0.84011 12.1234C0.66011 12.2604 0.61011 12.5248 0.72011 12.7206L2.64011 15.9715C2.76011 16.1869 3.01011 16.2554 3.23011 16.1869L5.62011 15.2469C6.12011 15.619 6.65011 15.9323 7.24011 16.1673L7.60011 18.6544C7.65011 18.8894 7.84011 19.0559 8.08011 19.0559H11.9201C12.1601 19.0559 12.3601 18.8894 12.3901 18.6544L12.7501 16.1673C13.3401 15.9323 13.8801 15.619 14.3701 15.2469L16.7601 16.1869C16.9801 16.2652 17.2301 16.1869 17.3501 15.9715L19.2701 12.7206C19.3901 12.5052 19.3401 12.2604 19.1501 12.1234L17.1401 10.5763ZM10.0001 13.1809C8.02011 13.1809 6.40011 11.5946 6.40011 9.65586C6.40011 7.71711 8.02011 6.13086 10.0001 6.13086C11.9801 6.13086 13.6001 7.71711 13.6001 9.65586C13.6001 11.5946 11.9801 13.1809 10.0001 13.1809Z" fill="#B6B4BA"/>
</svg>
