<svg width="14" height="18" viewBox="0 0 14 18" fill="none" xmlns="http://www.w3.org/2000/svg">
<path d="M9.50016 0.666626H2.00016C1.0835 0.666626 0.333496 1.41663 0.333496 2.33329V15.6666C0.333496 16.5833 1.0835 17.3333 2.00016 17.3333H12.0002C12.9168 17.3333 13.6668 16.5833 13.6668 15.6666V4.83329L9.50016 0.666626ZM2.00016 15.6666V2.33329H8.66683V5.66663H12.0002V15.6666H2.00016ZM10.3335 7.33329V11.5C10.3335 13.3416 8.84183 14.8333 7.00016 14.8333C5.1585 14.8333 3.66683 13.3416 3.66683 11.5V6.08329C3.66683 4.85829 4.71683 3.88329 5.96683 4.00829C7.05016 4.11663 7.8335 5.10829 7.8335 6.19996V11.5H6.16683V6.08329C6.16683 5.84996 5.9835 5.66663 5.75016 5.66663C5.51683 5.66663 5.3335 5.84996 5.3335 6.08329V11.5C5.3335 12.4166 6.0835 13.1666 7.00016 13.1666C7.91683 13.1666 8.66683 12.4166 8.66683 11.5V7.33329H10.3335Z" fill="#4AC7D3"/>
</svg>
