<svg width="22" height="14" viewBox="0 0 22 14" fill="none" xmlns="http://www.w3.org/2000/svg">
<path d="M11 0.125C6.41669 0.125 2.50252 2.97583 0.916687 7C2.50252 11.0242 6.41669 13.875 11 13.875C15.5834 13.875 19.4975 11.0242 21.0834 7C19.4975 2.97583 15.5834 0.125 11 0.125ZM11 11.5833C8.47002 11.5833 6.41669 9.53 6.41669 7C6.41669 4.47 8.47002 2.41667 11 2.41667C13.53 2.41667 15.5834 4.47 15.5834 7C15.5834 9.53 13.53 11.5833 11 11.5833ZM11 4.25C9.47835 4.25 8.25002 5.47833 8.25002 7C8.25002 8.52167 9.47835 9.75 11 9.75C12.5217 9.75 13.75 8.52167 13.75 7C13.75 5.47833 12.5217 4.25 11 4.25Z" fill="#B6B4BA"/>
</svg>
