<svg width="21" height="20" viewBox="0 0 21 20" fill="none" xmlns="http://www.w3.org/2000/svg">
<path fill-rule="evenodd" clip-rule="evenodd" d="M1.5 12C2.05228 12 2.5 12.4477 2.5 13V17C2.5 17.2652 2.60536 17.5196 2.79289 17.7071C2.98043 17.8946 3.23478 18 3.5 18H17.5C17.7652 18 18.0196 17.8946 18.2071 17.7071C18.3946 17.5196 18.5 17.2652 18.5 17V13C18.5 12.4477 18.9477 12 19.5 12C20.0523 12 20.5 12.4477 20.5 13V17C20.5 17.7957 20.1839 18.5587 19.6213 19.1213C19.0587 19.6839 18.2957 20 17.5 20H3.5C2.70435 20 1.94129 19.6839 1.37868 19.1213C0.81607 18.5587 0.5 17.7957 0.5 17V13C0.5 12.4477 0.947715 12 1.5 12Z" fill="#1F47F5"/>
<path fill-rule="evenodd" clip-rule="evenodd" d="M9.79289 0.292893C10.1834 -0.0976311 10.8166 -0.0976311 11.2071 0.292893L16.2071 5.29289C16.5976 5.68342 16.5976 6.31658 16.2071 6.70711C15.8166 7.09763 15.1834 7.09763 14.7929 6.70711L10.5 2.41421L6.20711 6.70711C5.81658 7.09763 5.18342 7.09763 4.79289 6.70711C4.40237 6.31658 4.40237 5.68342 4.79289 5.29289L9.79289 0.292893Z" fill="#1F47F5"/>
<path fill-rule="evenodd" clip-rule="evenodd" d="M10.5 1.49012e-08C11.0523 1.49012e-08 11.5 0.447715 11.5 1V13C11.5 13.5523 11.0523 14 10.5 14C9.94771 14 9.5 13.5523 9.5 13V1C9.5 0.447715 9.94771 1.49012e-08 10.5 1.49012e-08Z" fill="#1F47F5"/>
</svg>
