<svg width="14" height="14" viewBox="0 0 14 14" fill="none" xmlns="http://www.w3.org/2000/svg">
<path d="M1.66683 3.00004H0.333496V12.3334C0.333496 13.0667 0.933496 13.6667 1.66683 13.6667H11.0002V12.3334H1.66683V3.00004ZM12.3335 0.333374H4.3335C3.60016 0.333374 3.00016 0.933374 3.00016 1.66671V9.66671C3.00016 10.4 3.60016 11 4.3335 11H12.3335C13.0668 11 13.6668 10.4 13.6668 9.66671V1.66671C13.6668 0.933374 13.0668 0.333374 12.3335 0.333374ZM11.6668 6.33337H5.00016V5.00004H11.6668V6.33337ZM9.00016 9.00004H5.00016V7.66671H9.00016V9.00004ZM11.6668 3.66671H5.00016V2.33337H11.6668V3.66671Z" fill="#2E2C34"/>
</svg>
